<mxfile host="app.diagrams.net" agent="Mozilla/5.0 (Windows NT 10.0; Win64; x64) AppleWebKit/537.36 (KHTML, like Gecko) Chrome/132.0.0.0 Safari/537.36" version="26.0.9">
  <diagram name="Página-1" id="OTpSObVMoUOsSyWNgwmV">
    <mxGraphModel dx="1050" dy="522" grid="1" gridSize="10" guides="1" tooltips="1" connect="1" arrows="1" fold="1" page="1" pageScale="1" pageWidth="827" pageHeight="1169" math="0" shadow="0">
      <root>
        <mxCell id="0" />
        <mxCell id="1" parent="0" />
        <mxCell id="VzPvSjDH7yJE6mqDoxBZ-1" value="BVC&amp;nbsp;&lt;div&gt;(Doc CPF e CNPJ)&lt;/div&gt;" style="shape=cylinder3;whiteSpace=wrap;html=1;boundedLbl=1;backgroundOutline=1;size=15;" parent="1" vertex="1">
          <mxGeometry x="260" y="20" width="180" height="120" as="geometry" />
        </mxCell>
        <mxCell id="VzPvSjDH7yJE6mqDoxBZ-2" value="Parceiros Externos" style="rounded=1;whiteSpace=wrap;html=1;" parent="1" vertex="1">
          <mxGeometry x="30" y="50" width="120" height="60" as="geometry" />
        </mxCell>
        <mxCell id="VzPvSjDH7yJE6mqDoxBZ-3" style="edgeStyle=orthogonalEdgeStyle;rounded=0;orthogonalLoop=1;jettySize=auto;html=1;entryX=0;entryY=0.5;entryDx=0;entryDy=0;entryPerimeter=0;" parent="1" source="VzPvSjDH7yJE6mqDoxBZ-2" target="VzPvSjDH7yJE6mqDoxBZ-1" edge="1">
          <mxGeometry relative="1" as="geometry" />
        </mxCell>
        <mxCell id="VzPvSjDH7yJE6mqDoxBZ-4" value="Carga Full&amp;nbsp;&lt;div&gt;e Incremental&lt;/div&gt;" style="edgeLabel;html=1;align=center;verticalAlign=middle;resizable=0;points=[];" parent="VzPvSjDH7yJE6mqDoxBZ-3" vertex="1" connectable="0">
          <mxGeometry x="-0.1309" y="1" relative="1" as="geometry">
            <mxPoint as="offset" />
          </mxGeometry>
        </mxCell>
        <mxCell id="52ZuQLAlr7qtwWTt8vym-1" value="&lt;h1 style=&quot;margin-top: 0px;&quot;&gt;&lt;font style=&quot;font-size: 16px;&quot;&gt;FASE 1&lt;/font&gt;&lt;/h1&gt;&lt;p&gt;Processo higienização (Batch) visando atender sistemas legados&lt;/p&gt;" style="text;html=1;whiteSpace=wrap;overflow=hidden;rounded=0;strokeColor=#d6b656;fillColor=#fff2cc;sketch=1;curveFitting=1;jiggle=2;" vertex="1" parent="1">
          <mxGeometry x="10" y="370" width="190" height="90" as="geometry" />
        </mxCell>
        <mxCell id="52ZuQLAlr7qtwWTt8vym-2" value="&lt;h1 style=&quot;margin-top: 0px;&quot;&gt;&lt;font style=&quot;font-size: 16px;&quot;&gt;FASE 2&lt;/font&gt;&lt;/h1&gt;&lt;p&gt;Processo validação online (Travas)&lt;/p&gt;" style="text;html=1;whiteSpace=wrap;overflow=hidden;rounded=0;strokeColor=#d6b656;fillColor=#fff2cc;sketch=1;curveFitting=1;jiggle=2;" vertex="1" parent="1">
          <mxGeometry x="214" y="370" width="190" height="90" as="geometry" />
        </mxCell>
        <mxCell id="52ZuQLAlr7qtwWTt8vym-3" value="&lt;h1 style=&quot;margin-top: 0px;&quot;&gt;&lt;font style=&quot;font-size: 16px;&quot;&gt;FASE 3&lt;/font&gt;&lt;/h1&gt;&lt;p&gt;Processo higienização NF rejeitadas (broadcasting??)&lt;/p&gt;" style="text;html=1;whiteSpace=wrap;overflow=hidden;rounded=0;strokeColor=#d6b656;fillColor=#fff2cc;sketch=1;curveFitting=1;jiggle=2;" vertex="1" parent="1">
          <mxGeometry x="420" y="370" width="190" height="90" as="geometry" />
        </mxCell>
        <mxCell id="52ZuQLAlr7qtwWTt8vym-4" value="&lt;h1 style=&quot;margin-top: 0px;&quot;&gt;&lt;font style=&quot;font-size: 16px;&quot;&gt;FASE 4&lt;/font&gt;&lt;/h1&gt;&lt;p&gt;Processo expansão para atributos não NFCOM&lt;/p&gt;" style="text;html=1;whiteSpace=wrap;overflow=hidden;rounded=0;strokeColor=#d6b656;fillColor=#fff2cc;sketch=1;curveFitting=1;jiggle=2;" vertex="1" parent="1">
          <mxGeometry x="627" y="370" width="190" height="90" as="geometry" />
        </mxCell>
      </root>
    </mxGraphModel>
  </diagram>
</mxfile>
